<svg width="305" height="107" viewBox="0 0 305 107" fill="none" xmlns="http://www.w3.org/2000/svg">
<path d="M0 20C0 8.9543 8.9543 0 20 0H285C296.046 0 305 8.95431 305 20V87C305 98.0457 296.046 107 285 107H20C8.9543 107 0 98.0457 0 87V20Z" fill="#EADDCF"/>
<path d="M88.5137 87H63.5137V85.1934H66.0039V18.7871H63.5137V16.9805H88.5137V37.9766H80.5059V18.7871H74.0117V49.1094H83.4844V50.916H74.0117V85.1934H80.5059V66.0039H88.5137V87ZM118.006 77.2832C118.006 80.0827 116.834 82.4915 114.49 84.5098C112.146 86.4954 109.314 87.4883 105.994 87.4883C102.706 87.4883 99.8743 86.4954 97.498 84.5098C95.1543 82.4915 93.9824 80.0827 93.9824 77.2832V26.6973C93.9824 23.8978 95.1543 21.5052 97.498 19.5195C99.8743 17.5013 102.706 16.4922 105.994 16.4922C109.314 16.4922 112.146 17.5013 114.49 19.5195C116.834 21.5052 118.006 23.8978 118.006 26.6973V37.9766H109.998V22.3027C109.998 21.196 109.607 20.252 108.826 19.4707C108.045 18.6895 107.101 18.2988 105.994 18.2988C104.887 18.2988 103.943 18.6895 103.162 19.4707C102.381 20.252 101.99 21.196 101.99 22.3027V81.6777C101.99 82.7845 102.381 83.7285 103.162 84.5098C103.943 85.291 104.887 85.6816 105.994 85.6816C107.101 85.6816 108.045 85.291 108.826 84.5098C109.607 83.7285 109.998 82.7845 109.998 81.6777V50.916H105.994V49.1094H118.006V77.2832ZM148.963 18.7871H146.473L139.002 58.6797V85.1934H141.492V87H128.504V85.1934H130.994V58.6797L123.963 18.7871H121.473V16.9805H134.266V18.7871H131.775L137.684 53.6016L144.08 18.7871H141.59V16.9805H148.963V18.7871ZM176.99 46.8145C176.99 49.6139 175.818 52.0228 173.475 54.041C171.131 56.0267 168.299 57.0195 164.979 57.0195H161.512V85.1934H164.002V87H151.014V85.1934H153.504V18.7871H151.014V16.9805H164.979C168.299 16.9805 171.131 17.9896 173.475 20.0078C175.818 21.9935 176.99 24.3861 176.99 27.1855V46.8145ZM168.982 51.209V22.791C168.982 21.6842 168.592 20.7402 167.811 19.959C167.029 19.1777 166.085 18.7871 164.979 18.7871H161.512V55.2129H164.979C166.085 55.2129 167.029 54.8223 167.811 54.041C168.592 53.2598 168.982 52.3158 168.982 51.209ZM210.486 37.9766H203.113V18.7871H199.5V85.1934H201.99V87H189.002V85.1934H191.492V18.7871H187.879V37.9766H180.506V16.9805H210.486V37.9766Z" fill="#1E1E1E"/>
<path d="M32.0746 51.5C29.4079 51.5 27.3746 50.75 25.9746 49.25C24.5746 47.7167 23.8746 45.5333 23.8746 42.7V24.3C23.8746 21.4667 24.5746 19.3 25.9746 17.8C27.3746 16.2667 29.4079 15.5 32.0746 15.5C34.7413 15.5 36.7746 16.2667 38.1746 17.8C39.5746 19.3 40.2746 21.4667 40.2746 24.3V27.3H35.0746V23.95C35.0746 21.65 34.1246 20.5 32.2246 20.5C30.3246 20.5 29.3746 21.65 29.3746 23.95V43.1C29.3746 45.3667 30.3246 46.5 32.2246 46.5C34.1246 46.5 35.0746 45.3667 35.0746 43.1V36.25H32.3246V31.25H40.2746V42.7C40.2746 45.5333 39.5746 47.7167 38.1746 49.25C36.7746 50.75 34.7413 51.5 32.0746 51.5ZM51.7559 51.5C49.0559 51.5 46.9892 50.7333 45.5559 49.2C44.1225 47.6667 43.4059 45.5 43.4059 42.7V24.3C43.4059 21.5 44.1225 19.3333 45.5559 17.8C46.9892 16.2667 49.0559 15.5 51.7559 15.5C54.4559 15.5 56.5225 16.2667 57.9559 17.8C59.3892 19.3333 60.1059 21.5 60.1059 24.3V42.7C60.1059 45.5 59.3892 47.6667 57.9559 49.2C56.5225 50.7333 54.4559 51.5 51.7559 51.5ZM51.7559 46.5C53.6559 46.5 54.6059 45.35 54.6059 43.05V23.95C54.6059 21.65 53.6559 20.5 51.7559 20.5C49.8559 20.5 48.9059 21.65 48.9059 23.95V43.05C48.9059 45.35 49.8559 46.5 51.7559 46.5ZM29.3314 57H23.5814V52H40.5814V57H34.8314V87H29.3314V57ZM50.999 87.5C48.299 87.5 46.2324 86.7333 44.799 85.2C43.3657 83.6667 42.649 81.5 42.649 78.7V60.3C42.649 57.5 43.3657 55.3333 44.799 53.8C46.2324 52.2667 48.299 51.5 50.999 51.5C53.699 51.5 55.7657 52.2667 57.199 53.8C58.6324 55.3333 59.349 57.5 59.349 60.3V78.7C59.349 81.5 58.6324 83.6667 57.199 85.2C55.7657 86.7333 53.699 87.5 50.999 87.5ZM50.999 82.5C52.899 82.5 53.849 81.35 53.849 79.05V59.95C53.849 57.65 52.899 56.5 50.999 56.5C49.099 56.5 48.149 57.65 48.149 59.95V79.05C48.149 81.35 49.099 82.5 50.999 82.5Z" fill="#DDA86F"/>
<path d="M209.404 81.7H214.704V87H209.404V81.7ZM226.284 87.5C223.651 87.5 221.634 86.75 220.234 85.25C218.868 83.75 218.184 81.6333 218.184 78.9V60.1C218.184 57.3667 218.868 55.25 220.234 53.75C221.634 52.25 223.651 51.5 226.284 51.5C228.918 51.5 230.918 52.25 232.284 53.75C233.684 55.25 234.384 57.3667 234.384 60.1V63.8H229.184V59.75C229.184 57.5833 228.268 56.5 226.434 56.5C224.601 56.5 223.684 57.5833 223.684 59.75V79.3C223.684 81.4333 224.601 82.5 226.434 82.5C228.268 82.5 229.184 81.4333 229.184 79.3V73.95H234.384V78.9C234.384 81.6333 233.684 83.75 232.284 85.25C230.918 86.75 228.918 87.5 226.284 87.5ZM245.723 87.5C243.023 87.5 240.956 86.7333 239.523 85.2C238.089 83.6667 237.373 81.5 237.373 78.7V60.3C237.373 57.5 238.089 55.3333 239.523 53.8C240.956 52.2667 243.023 51.5 245.723 51.5C248.423 51.5 250.489 52.2667 251.923 53.8C253.356 55.3333 254.073 57.5 254.073 60.3V78.7C254.073 81.5 253.356 83.6667 251.923 85.2C250.489 86.7333 248.423 87.5 245.723 87.5ZM245.723 82.5C247.623 82.5 248.573 81.35 248.573 79.05V59.95C248.573 57.65 247.623 56.5 245.723 56.5C243.823 56.5 242.873 57.65 242.873 59.95V79.05C242.873 81.35 243.823 82.5 245.723 82.5ZM257.792 52H265.642L269.142 77.05H269.242L272.742 52H280.592V87H275.392V60.5H275.292L271.292 87H266.692L262.692 60.5H262.592V87H257.792V52Z" fill="#DDA86F"/>
</svg>
